HIERARCHY
ROOT hip
{
  OFFSET 0 0 0
  CHANNELS 6 Xposition Yposition Zposition Zrotation Yrotation Xrotation
  JOINT abdomen
  {
    OFFSET 0 20.6881 -0.73152
    CHANNELS 3 Zrotation Xrotation Yrotation
    JOINT chest
    {
      OFFSET 0 11.7043 -0.48768
      CHANNELS 3 Zrotation Xrotation Yrotation
      JOINT neck
      {
        OFFSET 0 22.1894 -2.19456
        CHANNELS 3 Zrotation Xrotation Yrotation
        JOINT head
        {
          OFFSET -0.24384 7.07133 1.2192
          CHANNELS 3 Zrotation Xrotation Yrotation
          JOINT leftEye
          {
            OFFSET 4.14528 8.04674 8.04672
            CHANNELS 3 Zrotation Xrotation Yrotation
            End Site
            {
              OFFSET 1 0 0
            }
          }
          JOINT rightEye
          {
            OFFSET -3.6576 8.04674 8.04672
            CHANNELS 3 Zrotation Xrotation Yrotation
            End Site
            {
              OFFSET 1 0 0
            }
          }
        }
      }
      JOINT rCollar
      {
        OFFSET -2.68224 19.2634 -4.8768
        CHANNELS 3 Zrotation Xrotation Yrotation
        JOINT rShldr
        {
          OFFSET -8.77824 -1.95073 1.46304
          CHANNELS 3 Zrotation Xrotation Yrotation
          JOINT rForeArm
          {
            OFFSET -28.1742 -1.7115 0.48768
            CHANNELS 3 Zrotation Xrotation Yrotation
            JOINT rHand
            {
              OFFSET -22.5879 0.773209 7.07136
              CHANNELS 3 Zrotation Xrotation Yrotation
              JOINT rThumb1
              {
                OFFSET -1.2192 -0.487915 3.41376
                CHANNELS 3 Zrotation Xrotation Yrotation
                JOINT rThumb2
                {
                  OFFSET -3.37035 -0.52449 3.41376
                  CHANNELS 3 Zrotation Xrotation Yrotation
                  End Site
                  {
                    OFFSET -1.78271 -1.18214 1.43049
                  }
                }
              }
              JOINT rIndex1
              {
                OFFSET -7.75947 0.938293 5.60832
                CHANNELS 3 Zrotation Xrotation Yrotation
                JOINT rIndex2
                {
                  OFFSET -2.54057 -0.884171 1.56538
                  CHANNELS 3 Zrotation Xrotation Yrotation
                  End Site
                  {
                    OFFSET -1.62519 -0.234802 1.16502
                  }
                }
              }
              JOINT rMid1
              {
                OFFSET -8.24714 1.18213 3.41376
                CHANNELS 3 Zrotation Xrotation Yrotation
                JOINT rMid2
                {
                  OFFSET -3.10165 -0.590103 1.0647
                  CHANNELS 3 Zrotation Xrotation Yrotation
                  End Site
                  {
                    OFFSET -2.48547 -0.328903 0.83742
                  }
                }
              }
              JOINT rRing1
              {
                OFFSET -8.82822 0.546677 1.51678
                CHANNELS 3 Zrotation Xrotation Yrotation
                JOINT rRing2
                {
                  OFFSET -2.60934 -0.819778 -0.0198488
                  CHANNELS 3 Zrotation Xrotation Yrotation
                  End Site
                  {
                    OFFSET -2.33842 -0.294052 0.168128
                  }
                }
              }
              JOINT rPinky1
              {
                OFFSET -8.27202 -0.0477905 -0.4584
                CHANNELS 3 Zrotation Xrotation Yrotation
                JOINT rPinky2
                {
                  OFFSET -1.82734 -0.647385 -0.700984
                  CHANNELS 3 Zrotation Xrotation Yrotation
                  End Site
                  {
                    OFFSET -1.69225 -0.51767 -0.607171
                  }
                }
              }
            }
          }
        }
      }
      JOINT lCollar
      {
        OFFSET 2.68224 19.2634 -4.8768
        CHANNELS 3 Zrotation Xrotation Yrotation
        JOINT lShldr
        {
          OFFSET 8.77824 -1.95073 1.46304
          CHANNELS 3 Zrotation Xrotation Yrotation
          JOINT lForeArm
          {
            OFFSET 28.1742 -1.7115 0.48768
            CHANNELS 3 Zrotation Xrotation Yrotation
            JOINT lHand
            {
              OFFSET 22.5879 0.773209 7.07136
              CHANNELS 3 Zrotation Xrotation Yrotation
              JOINT lThumb1
              {
                OFFSET 1.2192 -0.487915 3.41376
                CHANNELS 3 Zrotation Xrotation Yrotation
                JOINT lThumb2
                {
                  OFFSET 3.37035 -0.52449 3.41376
                  CHANNELS 3 Zrotation Xrotation Yrotation
                  End Site
                  {
                    OFFSET 1.78271 -1.18214 1.43049
                  }
                }
              }
              JOINT lIndex1
              {
                OFFSET 7.75947 0.938293 5.60832
                CHANNELS 3 Zrotation Xrotation Yrotation
                JOINT lIndex2
                {
                  OFFSET 2.54057 -0.884171 1.56538
                  CHANNELS 3 Zrotation Xrotation Yrotation
                  End Site
                  {
                    OFFSET 1.62519 -0.234802 1.16502
                  }
                }
              }
              JOINT lMid1
              {
                OFFSET 8.24714 1.18213 3.41376
                CHANNELS 3 Zrotation Xrotation Yrotation
                JOINT lMid2
                {
                  OFFSET 3.10165 -0.590103 1.0647
                  CHANNELS 3 Zrotation Xrotation Yrotation
                  End Site
                  {
                    OFFSET 2.48547 -0.328903 0.83742
                  }
                }
              }
              JOINT lRing1
              {
                OFFSET 8.82822 0.546677 1.51678
                CHANNELS 3 Zrotation Xrotation Yrotation
                JOINT lRing2
                {
                  OFFSET 2.60934 -0.819778 -0.0198488
                  CHANNELS 3 Zrotation Xrotation Yrotation
                  End Site
                  {
                    OFFSET 2.33842 -0.294052 0.168128
                  }
                }
              }
              JOINT lPinky1
              {
                OFFSET 8.27202 -0.0477905 -0.4584
                CHANNELS 3 Zrotation Xrotation Yrotation
                JOINT lPinky2
                {
                  OFFSET 1.82734 -0.647385 -0.700984
                  CHANNELS 3 Zrotation Xrotation Yrotation
                  End Site
                  {
                    OFFSET 1.69225 -0.51767 -0.607171
                  }
                }
              }
            }
          }
        }
      }
    }
  }
  JOINT rButtock
  {
    OFFSET -8.77824 4.35084 1.2192
    CHANNELS 3 Zrotation Xrotation Yrotation
    JOINT rThigh
    {
      OFFSET 0 -1.70687 -2.19456
      CHANNELS 3 Zrotation Xrotation Yrotation
      JOINT rShin
      {
        OFFSET 0 -36.8199 0.73152
        CHANNELS 3 Zrotation Xrotation Yrotation
        JOINT rFoot
        {
          OFFSET 0.73152 -45.1104 -5.12064
          CHANNELS 3 Zrotation Xrotation Yrotation
          End Site
          {
            OFFSET -1.1221 -3.69964 12.103
          }
        }
      }
    }
  }
  JOINT lButtock
  {
    OFFSET 8.77824 4.35084 1.2192
    CHANNELS 3 Zrotation Xrotation Yrotation
    JOINT lThigh
    {
      OFFSET 0 -1.70687 -2.19456
      CHANNELS 3 Zrotation Xrotation Yrotation
      JOINT lShin
      {
        OFFSET 0 -36.8199 0.73152
        CHANNELS 3 Zrotation Xrotation Yrotation
        JOINT lFoot
        {
          OFFSET -0.73152 -45.1104 -5.12064
          CHANNELS 3 Zrotation Xrotation Yrotation
          End Site
          {
            OFFSET 1.1221 -3.69964 12.103
          }
        }
      }
    }
  }
}
MOTION
Frames:	9
Frame Time:	0.00833333
172.779 83.185 77.5601 0.0 0.0 0.0 -3.13123 0.0020855 -0.0845039 -0.863237 0.0181967 -0.149333 6.0254e-14 0.0 -8.44835e-16 1.80922e-13 3.18055e-15 -2.23943e-15 -0.0 0.0 0.0 -0.0 0.0 0.0 3.04654e-14 3.4535e-16 -1.49089e-16 6.38136e-13 7.20594e-15 -5.96354e-15 1.09637e-11 -3.02014e-12 -2.70347e-13 1.25329e-10 4.61571e-12 -1.50122e-12 2.95653e-10 3.46441e-12 -3.85483e-12 5.10568e-10 5.9858e-12 -6.67678e-12 2.95655e-10 3.46243e-12 -3.87073e-12 7.73091 5.47488 0.417314 2.95651e-10 3.46412e-12 -3.86119e-12 2.90554 0.965183 0.102902 2.95655e-10 3.46452e-12 -3.8596e-12 10.2786 0.731801 0.0259123 2.95648e-10 3.46879e-12 -3.85483e-12 2.22167 -0.733487 -0.20892 3.03647e-14 3.50203e-16 -5.46658e-16 6.3406e-13 6.77731e-15 -7.7526e-15 1.09444e-11 3.51968e-12 -2.57625e-13 1.25317e-10 -1.94705e-12 -1.51076e-12 2.95595e-10 3.41995e-12 -3.86755e-12 5.10485e-10 5.90947e-12 -6.6895e-12 2.95594e-10 3.4179e-12 -3.85801e-12 -7.73091 5.47488 -0.417314 2.95596e-10 3.41939e-12 -3.87392e-12 -2.90554 0.965183 -0.102902 2.95592e-10 3.41969e-12 -3.86994e-12 -10.2786 0.731801 -0.0259123 2.95604e-10 3.42267e-12 -3.88664e-12 -2.22167 -0.733487 0.20892 -2.03217e-16 0.0 -3.88251e-19 -1.91832 -1.93503 0.0146168 -0.00850406 -2.07867 -0.0697915 -0.459154 4.0001 0.132531 2.03217e-16 0.0 3.88251e-19 -2.83775 -9.32631 0.322318 -0.00902792 11.308 -0.235108 0.526848 -1.99514 -0.0183117
168.649 82.3716 64.6427 -179.463 -32.7169 173.661 -2.94687 3.50001 1.10902 -0.447828 1.30271 0.0516678 -3.09084 2.72201 0.681766 5.27179 -9.28209 3.13982 -0.0 0.0 0.0 -0.0 0.0 0.0 1.55191e-14 5.2196e-14 -8.04014e-14 23.0988 3.73458 2.01655 -3.44806 -1.43933 5.51594 0.0470798 4.82229 0.669124 1.4475e-09 6.03013e-10 -4.68253e-10 2.49303e-09 1.06544e-09 -8.2845e-10 1.4475e-09 6.03011e-10 -4.68265e-10 7.73091 5.47488 0.417314 1.4475e-09 6.03013e-10 -4.68255e-10 2.90554 0.965183 0.102902 1.4475e-09 6.03014e-10 -4.68257e-10 10.2786 0.731801 0.0259123 1.44749e-09 6.03017e-10 -4.68251e-10 2.22167 -0.733487 -0.20892 1.54433e-14 5.21992e-14 -8.07582e-14 -23.5912 4.92365 -2.31204 3.39526 -1.40594 -5.44557 -0.0036969 -1.54639 0.217214 8.85448e-10 1.22894e-09 1.33508e-10 1.53291e-09 2.12897e-09 2.30932e-10 8.85446e-10 1.22894e-09 1.33514e-10 -7.73091 5.47488 -0.417314 8.85447e-10 1.22894e-09 1.33499e-10 -2.90554 0.965183 -0.102902 8.85443e-10 1.22894e-09 1.33504e-10 -10.2786 0.731801 -0.0259123 8.85455e-10 1.22895e-09 1.33489e-10 -2.22167 -0.733487 0.20892 -2.03217e-16 0.0 -3.88251e-19 -2.4551 -3.07338 -2.01445 0.0237517 8.50904 0.11474 -1.47609 -2.24391 -5.76593 2.03217e-16 0.0 3.88251e-19 1.49061 -10.9709 5.40173 0.0421987 20.9906 -0.34876 1.06726 -6.16951 2.64
168.519 82.3227 64.5378 -179.346 -32.4647 173.68 -2.9241 7.18861 2.38515 -0.0150909 2.66478 0.263767 -6.43007 5.60503 1.40349 12.0102 -19.0055 6.73597 -0.0 0.0 0.0 -0.0 0.0 0.0 1.9529e-16 1.07396e-13 -1.67557e-13 47.2351 7.64888 4.17958 -6.78854 -2.91341 11.3506 -0.0275422 9.94618 1.39641 2.73126e-09 1.30332e-09 -9.9471e-10 4.70244e-09 2.30181e-09 -1.75963e-09 2.73127e-09 1.30332e-09 -9.94716e-10 7.73091 5.47488 0.417314 2.73126e-09 1.30332e-09 -9.94706e-10 2.90554 0.965183 0.102902 2.73127e-09 1.30333e-09 -9.94711e-10 10.2786 0.731801 0.0259123 2.73126e-09 1.30333e-09 -9.94705e-10 2.22167 -0.733487 -0.20892 1.46376e-16 1.07397e-13 -1.67871e-13 -48.1105 10.0388 -4.83586 6.65358 -2.82219 -11.1496 0.00579595 -3.09358 0.435188 1.52814e-09 2.59805e-09 2.65775e-10 2.6472e-09 4.50094e-09 4.59564e-10 1.52814e-09 2.59804e-09 2.65778e-10 -7.73091 5.47488 -0.417314 1.52814e-09 2.59804e-09 2.65763e-10 -2.90554 0.965183 -0.102902 1.52813e-09 2.59804e-09 2.65769e-10 -10.2786 0.731801 -0.0259123 1.52815e-09 2.59805e-09 2.65756e-10 -2.22167 -0.733487 0.20892 -2.03217e-16 0.0 -3.88251e-19 -3.11486 -4.26127 -4.16024 -0.0197191 19.6968 0.326545 -3.95238 -8.70763 -12.1111 2.03217e-16 0.0 3.88251e-19 6.37687 -12.5811 10.8272 0.146317 31.2041 -0.497566 2.06252 -10.5302 5.50813
168.34 82.2793 64.4407 -179.391 -32.2309 173.72 -3.02123 10.4781 3.54911 0.355908 3.87161 0.454666 -9.46849 8.16137 2.0639 19.1805 -27.4899 10.4918 -0.0 0.0 0.0 -0.0 0.0 0.0 -1.43734e-14 1.55897e-13 -2.40906e-13 68.4965 11.1477 6.15332 -9.52378 -4.15818 16.5875 -0.20599 14.4588 2.06572 3.75119e-09 1.80211e-09 -1.39705e-09 6.45794e-09 3.18434e-09 -2.472e-09 3.75119e-09 1.80211e-09 -1.39705e-09 7.73091 5.47488 0.417314 3.75119e-09 1.80211e-09 -1.39704e-09 2.90554 0.965183 0.102902 3.75119e-09 1.80211e-09 -1.39705e-09 10.2786 0.731801 0.0259123 3.75119e-09 1.80211e-09 -1.39704e-09 2.22167 -0.733487 -0.20892 -1.43993e-14 1.55897e-13 -2.41181e-13 -69.5507 14.6731 -7.14468 9.39439 -4.06569 -16.3741 0.024182 -4.63889 0.653547 2.06515e-09 3.67999e-09 4.08258e-10 3.57776e-09 6.37508e-09 7.06174e-10 2.06515e-09 3.67999e-09 4.08258e-10 -7.73091 5.47488 -0.417314 2.06515e-09 3.67999e-09 4.08245e-10 -2.90554 0.965183 -0.102902 2.06515e-09 3.67999e-09 4.08251e-10 -10.2786 0.731801 -0.0259123 2.06516e-09 3.67999e-09 4.0824e-10 -2.22167 -0.733487 0.20892 -2.03217e-16 0.0 -3.88251e-19 -3.77094 -5.32572 -6.09026 -0.139433 29.6833 0.552415 -7.39289 -14.0644 -18.1097 2.03217e-16 0.0 3.88251e-19 11.0288 -13.884 15.7434 0.300316 40.3546 -0.676812 3.33906 -14.3964 8.16889
168.141 82.2003 64.3531 -179.504 -32.0385 173.813 -3.10425 12.7869 4.38226 0.591692 4.69043 0.591558 -11.617 9.90535 2.55339 24.961 -33.21 13.6353 -0.0 0.0 0.0 -0.0 0.0 0.0 -2.7054e-14 1.87653e-13 -2.7974e-13 83.1344 13.6609 7.5572 -11.3155 -4.98005 20.2928 -0.38871 17.4514 2.53223 4.1115e-09 1.79708e-09 -1.4891e-09 7.07869e-09 3.18228e-09 -2.63733e-09 4.11151e-09 1.79708e-09 -1.48911e-09 7.73091 5.47488 0.417314 4.1115e-09 1.79708e-09 -1.48909e-09 2.90554 0.965183 0.102902 4.1115e-09 1.79708e-09 -1.4891e-09 10.2786 0.731801 0.0259123 4.1115e-09 1.79709e-09 -1.4891e-09 2.22167 -0.733487 -0.20892 -2.70669e-14 1.87653e-13 -2.79988e-13 -84.1588 18.1997 -8.72584 11.3551 -5.0066 -20.3687 0.0470662 -6.17963 0.871907 2.33797e-09 4.04406e-09 5.76282e-10 4.049e-09 7.00466e-09 9.97726e-10 2.33797e-09 4.04406e-09 5.76282e-10 -7.73091 5.47488 -0.417314 2.33797e-09 4.04406e-09 5.76269e-10 -2.90554 0.965183 -0.102902 2.33796e-09 4.04406e-09 5.76275e-10 -10.2786 0.731801 -0.0259123 2.33797e-09 4.04406e-09 5.76266e-10 -2.22167 -0.733487 0.20892 -2.03217e-16 0.0 -3.88251e-19 -4.25056 -6.10248 -7.46655 -0.282398 36.6682 0.746435 -10.4708 -17.3208 -22.6364 2.03217e-16 0.0 3.88251e-19 14.4871 -14.7196 19.2511 0.461548 46.8485 -0.850221 4.48033 -17.1373 10.1233
167.989 82.0298 64.2471 -179.308 -31.7485 173.809 -3.0179 13.7298 4.71217 0.642083 4.97241 0.651451 -12.4743 10.5255 2.79316 27.4556 -35.349 15.1155 -0.0 0.0 0.0 -0.0 0.0 0.0 -3.80053e-14 1.97081e-13 -2.61158e-13 88.7704 14.813 8.10946 -12.0165 -5.30488 21.8061 -0.458844 18.3346 2.67538 3.38093e-09 9.24777e-10 -1.09789e-09 5.82238e-09 1.65848e-09 -1.94983e-09 3.38094e-09 9.24774e-10 -1.0979e-09 7.73091 5.47488 0.417314 3.38093e-09 9.24777e-10 -1.09788e-09 2.90554 0.965183 0.102902 3.38094e-09 9.24779e-10 -1.09789e-09 10.2786 0.731801 0.0259123 3.38093e-09 9.24782e-10 -1.09788e-09 2.22167 -0.733487 -0.20892 -3.80164e-14 1.97085e-13 -2.61393e-13 -89.5954 20.2654 -9.18235 12.4297 -5.59726 -22.6097 0.0733792 -7.76509 1.09768 2.18959e-09 3.22737e-09 8.61209e-10 3.78717e-09 5.58692e-09 1.4926e-09 2.18959e-09 3.22737e-09 8.61212e-10 -7.73091 5.47488 -0.417314 2.18959e-09 3.22737e-09 8.61201e-10 -2.90554 0.965183 -0.102902 2.18958e-09 3.22737e-09 8.61207e-10 -10.2786 0.731801 -0.0259123 2.18959e-09 3.22737e-09 8.61199e-10 -2.22167 -0.733487 0.20892 -2.03217e-16 0.0 -3.88251e-19 -4.401 -6.49751 -8.06948 -0.356384 39.4469 0.830585 -11.7737 -18.0394 -24.7377 2.03217e-16 0.0 3.88251e-19 16.0253 -15.0716 20.7211 0.549263 49.6228 -0.946479 5.0375 -18.3831 10.9509
167.86 81.9471 64.1245 -178.88 -31.4454 173.69 -2.77577 13.701 4.67187 0.562272 4.87066 0.656162 -12.3927 10.3434 2.85073 27.2059 -35.0224 15.1335 -0.0 0.0 0.0 -0.0 0.0 0.0 -4.76778e-14 1.90508e-13 -2.01999e-13 88.0411 15.0053 8.03089 -11.9952 -5.30633 21.7486 -0.424158 17.7118 2.57732 1.87914e-09 -5.59297e-10 -3.63811e-10 3.23905e-09 -9.3877e-10 -6.57304e-10 1.87915e-09 -5.59304e-10 -3.63831e-10 7.73091 5.47488 0.417314 1.87914e-09 -5.59297e-10 -3.6381e-10 2.90554 0.965183 0.102902 1.87915e-09 -5.59297e-10 -3.63811e-10 10.2786 0.731801 0.0259123 1.87914e-09 -5.59292e-10 -3.63809e-10 2.22167 -0.733487 -0.20892 -4.76954e-14 1.90518e-13 -2.02229e-13 -88.5994 21.3069 -8.78441 12.9304 -5.97022 -23.5924 0.106482 -9.37989 1.32963 1.7428e-09 1.57566e-09 1.22578e-09 3.00601e-09 2.72133e-09 2.12601e-09 1.7428e-09 1.57566e-09 1.22578e-09 -7.73091 5.47488 -0.417314 1.7428e-09 1.57566e-09 1.22578e-09 -2.90554 0.965183 -0.102902 1.74279e-09 1.57566e-09 1.22578e-09 -10.2786 0.731801 -0.0259123 1.7428e-09 1.57566e-09 1.22577e-09 -2.22167 -0.733487 0.20892 -2.03217e-16 0.0 -3.88251e-19 -4.29767 -6.62362 -8.11694 -0.349802 39.2218 0.812857 -11.5181 -17.1072 -24.9952 2.03217e-16 0.0 3.88251e-19 16.1318 -15.1258 20.7213 0.553418 49.7405 -0.960076 5.07682 -18.5853 10.9346
167.709 81.8181 64.0153 -178.654 -31.1792 173.688 -2.47971 13.2915 4.4896 0.437799 4.60543 0.639833 -11.9068 9.82385 2.83195 25.7837 -33.6876 14.5318 -0.0 0.0 0.0 -0.0 0.0 0.0 -5.53767e-14 1.75747e-13 -1.41158e-13 84.7514 14.8445 7.67417 -11.7077 -5.19412 21.1012 -0.352326 16.4653 2.38213 3.36727e-10 -2.02899e-09 4.2923e-10 5.86332e-10 -3.51214e-09 7.38054e-10 3.36735e-10 -2.029e-09 4.292e-10 7.73091 5.47488 0.417314 3.36727e-10 -2.02899e-09 4.29225e-10 2.90554 0.965183 0.102902 3.36736e-10 -2.02899e-09 4.29229e-10 10.2786 0.731801 0.0259123 3.36721e-10 -2.02898e-09 4.29228e-10 2.22167 -0.733487 -0.20892 -5.54079e-14 1.75762e-13 -1.41393e-13 -85.0884 21.9051 -7.97991 13.2299 -6.28693 -24.0905 0.146185 -10.9244 1.55392 1.25876e-09 -1.28916e-10 1.49236e-09 2.16113e-09 -2.35511e-10 2.5902e-09 1.25876e-09 -1.28914e-10 1.49238e-09 -7.73091 5.47488 -0.417314 1.25876e-09 -1.28914e-10 1.49237e-09 -2.90554 0.965183 -0.102902 1.25875e-09 -1.28913e-10 1.49237e-09 -10.2786 0.731801 -0.0259123 1.25876e-09 -1.28914e-10 1.49237e-09 -2.22167 -0.733487 0.20892 -2.03217e-16 0.0 -3.88251e-19 -4.10287 -6.63038 -7.9252 -0.311394 37.8028 0.756659 -10.661 -15.684 -24.4197 2.03217e-16 0.0 3.88251e-19 15.6492 -15.0629 20.139 0.521325 48.7972 -0.937775 4.90834 -18.3676 10.5951
167.525 81.7408 63.912 -178.637 -30.8793 173.818 -2.23392 13.0923 4.39449 0.35411 4.39697 0.636607 -11.5538 9.43139 2.84306 24.7977 -32.7894 14.1738 -0.0 0.0 0.0 -0.0 0.0 0.0 -6.04073e-14 1.60609e-13 -1.17531e-13 82.6966 14.9361 7.39614 -11.6039 -5.17473 20.8458 -0.303133 15.4778 2.23033 -5.15701e-10 -2.85813e-09 9.9733e-10 -8.78122e-10 -4.9643e-09 1.73405e-09 -5.15695e-10 -2.85814e-09 9.97295e-10 7.73091 5.47488 0.417314 -5.15702e-10 -2.85813e-09 9.97323e-10 2.90554 0.965183 0.102902 -5.15693e-10 -2.85814e-09 9.97328e-10 10.2786 0.731801 0.0259123 -5.1571e-10 -2.85813e-09 9.97327e-10 2.22167 -0.733487 -0.20892 -6.04579e-14 1.60627e-13 -1.1778e-13 -82.9482 22.6392 -7.23546 13.665 -6.68724 -24.8824 0.189197 -12.2991 1.75585 9.98635e-10 -1.10421e-09 1.48335e-09 1.70814e-09 -1.92699e-09 2.57741e-09 9.98633e-10 -1.1042e-09 1.48337e-09 -7.73091 5.47488 -0.417314 9.98636e-10 -1.1042e-09 1.48336e-09 -2.90554 0.965183 -0.102902 9.98627e-10 -1.1042e-09 1.48336e-09 -10.2786 0.731801 -0.0259123 9.98637e-10 -1.1042e-09 1.48336e-09 -2.22167 -0.733487 0.20892 -2.03217e-16 0.0 -3.88251e-19 -3.98435 -6.66631 -7.8114 -0.290532 37.0002 0.726134 -10.1534 -14.9142 -23.9907 2.03217e-16 0.0 3.88251e-19 15.4306 -15.0563 19.8646 0.507458 48.3887 -0.932632 4.86069 -18.3498 10.4619
